<svg width="144" height="223" viewBox="0 0 144 223" fill="none" xmlns="http://www.w3.org/2000/svg">
<mask id="mask0_29_2188" style="mask-type:luminance" maskUnits="userSpaceOnUse" x="0" y="0" width="101" height="168">
<path d="M0 116.321L48.9741 67.346L0 18.3719V0H32.8774L87.4115 54.5341L100.224 67.346L87.4115 80.1585L0 167.57V116.321Z" fill="white"/>
</mask>
<g mask="url(#mask0_29_2188)">
<path d="M100.224 0H0V167.57H100.224V0Z" fill="url(#paint0_linear_29_2188)" fill-opacity="0.5"/>
</g>
<mask id="mask1_29_2188" style="mask-type:luminance" maskUnits="userSpaceOnUse" x="0" y="40" width="144" height="183">
<path d="M52.6102 223L92.0862 183.524L0 91.4383V40.189L130.524 170.712L143.335 183.524L130.524 196.336L103.86 223H52.6102Z" fill="white"/>
</mask>
<g mask="url(#mask1_29_2188)">
<path d="M143.335 40.189H0V223H143.335V40.189Z" fill="url(#paint1_linear_29_2188)"/>
</g>
<defs>
<linearGradient id="paint0_linear_29_2188" x1="50.112" y1="0" x2="50.112" y2="167.57" gradientUnits="userSpaceOnUse">
<stop stop-color="#C2E0FF"/>
<stop offset="1" stop-color="#007AFF"/>
</linearGradient>
<linearGradient id="paint1_linear_29_2188" x1="71.6677" y1="40.189" x2="71.6677" y2="223" gradientUnits="userSpaceOnUse">
<stop stop-color="#FFF9DC"/>
<stop offset="1" stop-color="#FCD209"/>
</linearGradient>
</defs>
</svg>
