<svg width="380" height="209" viewBox="0 0 380 209" fill="none" xmlns="http://www.w3.org/2000/svg">
<mask id="mask0_4407_4021" style="mask-type:luminance" maskUnits="userSpaceOnUse" x="-1" y="-40" width="481" height="254">
<path d="M-0.00906372 -39.5469H480V213.946H-0.00906372V-39.5469Z" fill="white"/>
</mask>
<g mask="url(#mask0_4407_4021)">
<path d="M118.864 -86.125C169.704 -74.4289 185.436 -31.5936 190.42 -10.9035C194.283 5.12231 203.434 20.1088 217.366 30.0508C233.645 41.6659 254.873 44.2059 273.51 50.2289C290.083 55.5877 308.401 64.9314 314.489 82.4478C318.738 94.6814 319.453 120.117 338.911 131.686C345.461 135.58 357.157 139.261 359.5 147.707C361.969 156.595 358.329 164.509 346.333 168.24C335.119 171.728 318.256 166.633 295.924 168.24C277.099 169.594 275.335 187.886 261.844 197.407C245.337 209.063 222.299 200.494 203.693 205.823C190.207 209.681 178.232 217.534 164.533 220.51C144.669 224.825 123.908 223.441 104.045 219.887C80.2365 215.633 2.57642 251.675 -17.5357 211.957C-31.5539 197.179 -32.8619 -35.1222 17.7708 -82.9817C32.3973 -96.8072 82.6701 -108.706 101.93 -102.861" fill="#D9E8FF"/>
</g>
<g style="mix-blend-mode:multiply" opacity="0.55">
<path d="M106.434 169.269C106.434 171.424 141.218 173.173 184.119 173.173C227.02 173.173 261.805 171.424 261.805 169.269C261.805 167.114 227.02 165.365 184.119 165.365C141.218 165.365 106.434 167.114 106.434 169.269Z" fill="#D9E8FF"/>
</g>
<g style="mix-blend-mode:multiply" opacity="0.55">
<path d="M284.502 150.212C261.103 150.212 242.133 148.464 242.133 146.308C242.133 144.152 261.103 142.404 284.502 142.404C307.902 142.404 326.871 144.152 326.871 146.308C326.871 148.464 307.902 150.212 284.502 150.212Z" fill="#D9E8FF"/>
</g>
<path d="M296.636 144.342H327.349C333.342 144.342 332.368 137.234 315.698 140.398C319.79 138.527 319.815 136.022 319.465 135.358C319.146 134.745 317.98 134.349 317.29 134.41C315.171 134.593 313.559 135.891 311.703 136.93C315.065 134.745 317.153 130.73 317.017 126.724C316.981 125.624 316.743 124.443 315.932 123.693C315.019 122.851 313.534 122.293 312.317 122.532C310.066 122.978 305.929 126.734 304.281 128.331C312.682 120.605 315.881 108.427 310.502 105.649C301.447 100.974 294.608 127.459 294.608 127.459C294.608 127.459 299.11 107.555 291.556 107.439C284.002 107.322 290.141 130.562 290.141 130.562" fill="#ACC9F9"/>
<path d="M299.35 129.998C298.361 129.998 297.413 130.165 296.526 130.464C296.313 123.088 290.269 117.166 282.837 117.166C275.405 117.166 269.138 123.301 269.138 130.865C269.138 131.21 269.153 131.554 269.179 131.894C267.856 129.663 265.432 128.163 262.654 128.163C258.461 128.163 255.064 131.559 255.064 135.752C255.064 136.345 255.14 136.923 255.267 137.476C254.486 137.04 253.584 136.791 252.626 136.791C249.619 136.791 247.186 139.23 247.186 142.231C247.186 145.233 249.619 147.671 252.626 147.671H299.35C304.232 147.671 308.191 143.712 308.191 138.83C308.191 133.947 304.232 129.988 299.35 129.988V129.998Z" fill="white"/>
<path d="M97.7478 150.156C95.0912 150.156 92.9365 152.31 92.9365 154.967V40.0789C92.9365 37.4223 95.0912 35.2676 97.7478 35.2676H239.207V150.156H97.7478Z" fill="#95BAEF"/>
<path d="M97.751 43.9929C95.0995 43.9929 92.9498 41.8382 92.9498 39.1816V154.07C92.9498 156.726 95.0995 158.881 97.751 158.881H251.961V43.9929H97.751Z" fill="#ACC9F9"/>
<path d="M251.54 158.46C254.197 158.46 256.352 160.615 256.352 163.272V48.3836C256.352 45.727 254.197 43.5723 251.54 43.5723H97.163V158.46H251.54Z" fill="#ACC9F9"/>
<path d="M251.54 53.6472C254.197 53.6472 256.352 51.4925 256.352 48.8359V163.359C256.352 166.016 254.197 168.17 251.54 168.17H101.695V53.6472H251.54Z" fill="white"/>
<path d="M251.312 44.7028H97.163V43.5723H251.312C254.095 43.5723 256.352 45.8284 256.352 48.6117C256.352 51.3951 254.095 53.6511 251.312 53.6511H101.695V52.5206H251.312C253.467 52.5206 255.216 50.7664 255.216 48.6168C255.216 46.4672 253.462 44.713 251.312 44.713V44.7028Z" fill="#92A7F4"/>
<path d="M97.9693 35.7751H239.124V34.6445H97.9693C95.1859 34.6445 92.9299 36.9006 92.9299 39.684C92.9299 42.4673 95.1859 44.7234 97.9693 44.7234H247.586V43.5928H97.9693C95.8146 43.5928 94.0655 41.8387 94.0655 39.689C94.0655 37.5394 95.8197 35.7852 97.9693 35.7852V35.7751Z" fill="#92A7F4"/>
<path d="M170.633 87.8574H246.523V90.1237H170.633V87.8574Z" fill="#E2F0FB"/>
<path d="M170.633 92.1211H246.523V94.3873H170.633V92.1211Z" fill="#E2F0FB"/>
<path d="M170.633 96.3848H246.523V98.651H170.633V96.3848Z" fill="#E2F0FB"/>
<path d="M170.633 100.645H246.523V102.911H170.633V100.645Z" fill="#E2F0FB"/>
<path d="M170.633 104.908H246.523V107.174H170.633V104.908Z" fill="#E2F0FB"/>
<path d="M170.633 109.17H246.523V111.436H170.633V109.17Z" fill="#E2F0FB"/>
<path d="M170.633 113.434H246.523V115.7H170.633V113.434Z" fill="#E2F0FB"/>
<path d="M170.633 117.699H246.523V119.965H170.633V117.699Z" fill="#E2F0FB"/>
<path d="M170.633 126.779H246.523V129.046H170.633V126.779Z" fill="#E2F0FB"/>
<path d="M170.633 131.043H246.523V133.309H170.633V131.043Z" fill="#E2F0FB"/>
<path d="M170.633 135.307H246.523V158.146H170.633V135.307Z" fill="#E2F0FB"/>
<path d="M170.633 160.885H246.523V163.151H170.633V160.885Z" fill="#E2F0FB"/>
<path d="M112.97 126.777H163.344V129.044H112.97V126.777Z" fill="#E2F0FB"/>
<path d="M112.97 131.041H163.344V133.307H112.97V131.041Z" fill="#E2F0FB"/>
<path d="M112.97 118.424H163.344V120.69H112.97V118.424Z" fill="#E2F0FB"/>
<path d="M112.97 114.215H163.344V116.481H112.97V114.215Z" fill="#E2F0FB"/>
<path d="M112.97 135.305H163.344V137.571H112.97V135.305Z" fill="#E2F0FB"/>
<path d="M112.97 139.568H163.344V141.835H112.97V139.568Z" fill="#E2F0FB"/>
<path d="M112.97 143.832H163.344V146.098H112.97V143.832Z" fill="#E2F0FB"/>
<path d="M112.97 148.098H163.344V150.364H112.97V148.098Z" fill="#E2F0FB"/>
<path d="M112.97 152.361H163.344V154.628H112.97V152.361Z" fill="#E2F0FB"/>
<path d="M112.97 156.625H163.344V158.891H112.97V156.625Z" fill="#E2F0FB"/>
<path d="M112.97 160.883H163.344V163.149H112.97V160.883Z" fill="#E2F0FB"/>
<path d="M210.69 68.3055V80H209.319L202.946 70.818H202.832V80H201.416V68.3055H202.787L209.182 77.5103H209.296V68.3055H210.69ZM213.523 80V68.3055H220.581V69.5617H214.939V73.5132H220.216V74.7694H214.939V78.7438H220.672V80H213.523ZM225.258 80L222.06 68.3055H223.499L225.943 77.8301H226.057L228.547 68.3055H230.146L232.635 77.8301H232.75L235.194 68.3055H236.633L233.435 80H231.973L229.392 70.6809H229.301L226.72 80H225.258ZM244.792 71.2291C244.724 70.6505 244.446 70.2013 243.959 69.8815C243.471 69.5617 242.874 69.4018 242.166 69.4018C241.648 69.4018 241.195 69.4856 240.807 69.6531C240.422 69.8206 240.121 70.0509 239.904 70.344C239.691 70.6371 239.585 70.9702 239.585 71.3433C239.585 71.6555 239.659 71.9238 239.807 72.1484C239.96 72.3692 240.154 72.5539 240.39 72.7023C240.626 72.847 240.873 72.9669 241.132 73.0621C241.391 73.1534 241.629 73.2277 241.846 73.2848L243.034 73.6045C243.338 73.6845 243.677 73.7949 244.05 73.9357C244.427 74.0766 244.787 74.2688 245.129 74.5125C245.476 74.7523 245.761 75.0607 245.986 75.4375C246.21 75.8144 246.323 76.2769 246.323 76.8251C246.323 77.457 246.157 78.0281 245.826 78.5382C245.499 79.0483 245.019 79.4537 244.387 79.7545C243.759 80.0552 242.996 80.2056 242.097 80.2056C241.26 80.2056 240.535 80.0704 239.922 79.8001C239.313 79.5299 238.833 79.153 238.483 78.6695C238.136 78.1861 237.94 77.6245 237.894 76.985H239.356C239.394 77.4266 239.543 77.792 239.802 78.0814C240.064 78.3669 240.396 78.5801 240.795 78.7209C241.199 78.858 241.633 78.9265 242.097 78.9265C242.638 78.9265 243.123 78.8389 243.553 78.6638C243.984 78.4849 244.324 78.2374 244.575 77.9215C244.827 77.6017 244.952 77.2286 244.952 76.8023C244.952 76.414 244.844 76.098 244.627 75.8544C244.41 75.6107 244.124 75.4128 243.77 75.2605C243.416 75.1082 243.034 74.975 242.623 74.8608L241.184 74.4497C240.27 74.187 239.547 73.812 239.014 73.3247C238.481 72.8375 238.214 72.1998 238.214 71.4118C238.214 70.757 238.391 70.186 238.745 69.6988C239.103 69.2077 239.583 68.827 240.184 68.5567C240.79 68.2826 241.465 68.1456 242.211 68.1456C242.965 68.1456 243.635 68.2807 244.221 68.551C244.808 68.8175 245.272 69.1829 245.615 69.6474C245.961 70.1118 246.144 70.639 246.163 71.2291H244.792Z" fill="#92A7F4"/>
<path d="M112.97 87.8574H163.344V112.319H112.97V87.8574Z" fill="#E2F0FB"/>
<path d="M112.971 59.2539H153.961V81.9365H112.971V59.2539Z" fill="#DEEBFF"/>
<path d="M246.52 84.3555H112.969" stroke="#A0D0D8" stroke-width="0.583034" stroke-miterlimit="10"/>
<path d="M141.254 70.7879C141.254 66.0171 137.37 62.1387 132.6 62.1387C127.829 62.1387 123.95 66.0222 123.95 70.7879C123.95 75.5535 127.829 79.437 132.6 79.437C137.37 79.437 141.254 75.5535 141.254 70.7879ZM140.377 70.7879C140.377 75.0719 136.889 78.56 132.605 78.56C128.321 78.56 124.833 75.0719 124.833 70.7879C124.833 66.5038 128.321 63.0158 132.605 63.0158C136.889 63.0158 140.377 66.5038 140.377 70.7879Z" fill="white"/>
<path d="M136.473 70.7879C136.473 65.936 134.774 62.1387 132.599 62.1387C130.424 62.1387 128.726 65.9411 128.726 70.7879C128.726 75.6346 130.424 79.437 132.599 79.437C134.774 79.437 136.473 75.6346 136.473 70.7879ZM135.596 70.7879C135.596 75.3659 134.019 78.56 132.604 78.56C131.19 78.56 129.613 75.3659 129.613 70.7879C129.613 66.2098 131.19 63.0158 132.604 63.0158C134.019 63.0158 135.596 66.2098 135.596 70.7879Z" fill="white"/>
<path d="M124.391 70.3516H140.812V71.2337H124.391V70.3516Z" fill="white"/>
<path d="M132.602 67.5735C127.837 67.5735 126.164 65.9004 126.093 65.8295L126.726 65.216L126.412 65.5202L126.726 65.2109C126.726 65.2109 128.263 66.6913 132.607 66.6913C136.952 66.6913 138.473 65.2261 138.489 65.2109L139.117 65.8244C139.046 65.8954 137.368 67.5684 132.607 67.5684L132.602 67.5735Z" fill="white"/>
<path d="M126.719 76.3653L126.09 75.7518C126.161 75.6809 127.834 74.0078 132.6 74.0078C137.365 74.0078 139.038 75.6809 139.109 75.7518L138.476 76.3653C138.476 76.3653 136.939 74.89 132.6 74.89C128.26 74.89 126.734 76.3552 126.719 76.3704V76.3653Z" fill="white"/>
<path d="M119.262 110.013H160.637V89.9414" stroke="#9999EF" stroke-width="0.263633" stroke-miterlimit="10"/>
<path opacity="0.24" d="M160.637 104.289L151.719 96.4259L149.422 99.5388L146.041 92.4004L143.653 98.3473L140.758 94.4638L136.722 101.643L129.224 94.4131L125.852 100.421V109.993H160.637V104.289Z" fill="url(#paint0_linear_4407_4021)"/>
<path opacity="0.24" d="M160.637 101.8L152.292 105.476L146.091 92.8672L142.705 101.8L137.143 95.9851L131.277 102.333V109.993H160.637V101.8Z" fill="url(#paint1_linear_4407_4021)"/>
<path d="M121.004 89.6074H115.087" stroke="#9999EF" stroke-width="0.36503" stroke-miterlimit="10"/>
<path d="M121.004 90.5801H115.087" stroke="#9999EF" stroke-width="0.36503" stroke-miterlimit="10"/>
<path d="M121.004 91.5586H115.087" stroke="#9999EF" stroke-width="0.36503" stroke-miterlimit="10"/>
<path d="M124.84 89.6074H122.158" stroke="#9999EF" stroke-width="0.36503" stroke-miterlimit="10"/>
<path d="M124.84 90.5801H122.158" stroke="#9999EF" stroke-width="0.36503" stroke-miterlimit="10"/>
<path d="M124.84 91.5586H122.158" stroke="#9999EF" stroke-width="0.36503" stroke-miterlimit="10"/>
<path d="M158.879 98.4593C157.51 99.0423 156.658 100.234 156.009 101.42C155.365 102.601 154.833 103.864 153.809 104.837C152.785 105.805 151.087 106.414 149.697 105.866C148.47 105.385 147.882 104.203 147.441 103.113C146.154 99.9397 145.195 96.6645 144.577 93.3488C144.486 92.8571 144.399 92.3501 144.121 91.9141C143.842 91.4781 143.335 91.108 142.747 91.0978C142.062 91.0877 141.504 91.5541 141.068 92.0053C138.158 95.032 136.896 98.9662 134.427 102.267C133.945 102.916 133.307 103.59 132.409 103.671C131.694 103.737 131.02 103.392 130.437 103.037C128.693 101.983 127.157 100.675 125.91 99.1944" stroke="white" stroke-width="0.283912" stroke-miterlimit="10"/>
<path d="M158.649 98.359C158.649 98.4857 158.751 98.5871 158.877 98.5871C159.004 98.5871 159.105 98.4857 159.105 98.359C159.105 98.2322 159.004 98.1309 158.877 98.1309C158.751 98.1309 158.649 98.2322 158.649 98.359Z" fill="#9999EF" stroke="#9999EF" stroke-width="0.506986" stroke-miterlimit="10"/>
<path d="M150.528 106.045C150.528 106.171 150.629 106.273 150.756 106.273C150.883 106.273 150.984 106.171 150.984 106.045C150.984 105.918 150.883 105.816 150.756 105.816C150.629 105.816 150.528 105.918 150.528 106.045Z" fill="#9999EF" stroke="#9999EF" stroke-width="0.506986" stroke-miterlimit="10"/>
<path d="M125.891 99.3668C125.891 99.4936 125.993 99.595 126.12 99.595C126.246 99.595 126.348 99.4936 126.348 99.3668C126.348 99.2401 126.246 99.1387 126.12 99.1387C125.993 99.1387 125.891 99.2401 125.891 99.3668Z" fill="#9999EF" stroke="#9999EF" stroke-width="0.506986" stroke-miterlimit="10"/>
<path d="M132.177 103.718C132.177 103.845 132.278 103.947 132.405 103.947C132.531 103.947 132.633 103.845 132.633 103.718C132.633 103.592 132.531 103.49 132.405 103.49C132.278 103.49 132.177 103.592 132.177 103.718Z" fill="#9999EF" stroke="#9999EF" stroke-width="0.506986" stroke-miterlimit="10"/>
<path d="M142.759 91.1696C142.759 91.2963 142.86 91.3977 142.987 91.3977C143.113 91.3977 143.215 91.2963 143.215 91.1696C143.215 91.0428 143.113 90.9414 142.987 90.9414C142.86 90.9414 142.759 91.0428 142.759 91.1696Z" fill="#9999EF" stroke="#9999EF" stroke-width="0.506986" stroke-miterlimit="10"/>
<path d="M167.976 25.0801C168.823 27.2094 171.236 28.2437 173.36 27.397C175.49 26.5503 176.524 24.1371 175.677 22.0128C174.83 19.8835 172.417 18.8492 170.293 19.6959C168.164 20.5426 167.129 22.9558 167.976 25.0801Z" fill="#9999EF"/>
<path d="M173.594 23.0527L172.661 25.1263L169.548 23.1998" stroke="white" stroke-width="0.882156" stroke-linecap="round" stroke-linejoin="round"/>
<path d="M290.202 80.1241C289.488 82.2991 290.674 84.6414 292.849 85.3562C295.024 86.0711 297.366 84.8847 298.081 82.7097C298.796 80.5348 297.609 78.1925 295.434 77.4776C293.26 76.7628 290.917 77.9491 290.202 80.1241Z" fill="#9999EF"/>
<path d="M295.82 82.1667L293.772 83.1604L292.616 79.6875" stroke="white" stroke-width="0.882156" stroke-linecap="round" stroke-linejoin="round"/>
<path d="M60.9518 107.055C60.9518 107.897 61.6363 108.581 62.4779 108.581C63.3195 108.581 64.0039 107.897 64.0039 107.055C64.0039 106.214 63.3195 105.529 62.4779 105.529C61.6363 105.529 60.9518 106.214 60.9518 107.055Z" fill="#9999EF"/>
<path opacity="0.3" d="M186.389 8.61782C186.389 9.45942 187.074 10.1438 187.915 10.1438C188.757 10.1438 189.441 9.45942 189.441 8.61782C189.441 7.77623 188.757 7.0918 187.915 7.0918C187.074 7.0918 186.389 7.77623 186.389 8.61782Z" fill="#9999EF"/>
<path d="M337.238 154.631C337.238 155.974 338.328 157.064 339.672 157.064C341.015 157.064 342.105 155.974 342.105 154.631C342.105 153.287 341.015 152.197 339.672 152.197C338.328 152.197 337.238 153.287 337.238 154.631Z" fill="#9999EF"/>
<path opacity="0.3" d="M55.0599 79.9349C55.0599 82.0034 56.7329 83.6765 58.8014 83.6765C60.8699 83.6765 62.543 81.9984 62.543 79.9349C62.543 77.8715 60.8699 76.1934 58.8014 76.1934C56.7329 76.1934 55.0599 77.8664 55.0599 79.9349Z" fill="#9999EF"/>
<path opacity="0.3" d="M224.052 10.6459C224.052 12.7144 225.725 14.3874 227.794 14.3874C229.862 14.3874 231.535 12.7093 231.535 10.6459C231.535 8.58242 229.857 6.9043 227.794 6.9043C225.73 6.9043 224.052 8.57735 224.052 10.6459Z" fill="#9999EF"/>
<path opacity="0.3" d="M279.583 183.974C279.583 186.042 281.256 187.716 283.325 187.716C285.393 187.716 287.066 186.037 287.066 183.974C287.066 181.911 285.388 180.232 283.325 180.232C281.261 180.232 279.583 181.905 279.583 183.974Z" fill="#9999EF"/>
<path opacity="0.3" d="M142.113 10.0878C142.113 11.4313 143.203 12.5214 144.547 12.5214C145.89 12.5214 146.98 11.4313 146.98 10.0878C146.98 8.74431 145.89 7.6543 144.547 7.6543C143.203 7.6543 142.113 8.74431 142.113 10.0878Z" fill="#9999EF"/>
<path opacity="0.2" d="M78.004 55.5995C78.004 56.9431 79.0941 58.0331 80.4376 58.0331C81.7811 58.0331 82.8711 56.9431 82.8711 55.5995C82.8711 54.256 81.7811 53.166 80.4376 53.166C79.0941 53.166 78.004 54.256 78.004 55.5995Z" fill="#9999EF"/>
<path d="M334.123 103.562C334.391 103.562 334.609 103.344 334.609 103.075V99.643C334.609 99.3742 334.391 99.1562 334.123 99.1562C333.854 99.1562 333.636 99.3742 333.636 99.643V103.075C333.636 103.344 333.854 103.562 334.123 103.562Z" fill="#9999EF"/>
<path d="M332.409 101.848H335.841C336.11 101.848 336.328 101.63 336.328 101.362C336.328 101.093 336.11 100.875 335.841 100.875H332.409C332.14 100.875 331.922 101.093 331.922 101.362C331.922 101.63 332.14 101.848 332.409 101.848Z" fill="#9999EF"/>
<g opacity="0.3">
<path d="M318.865 69.1538C319.134 69.1538 319.352 68.9357 319.352 68.667V65.2347C319.352 64.966 319.134 64.748 318.865 64.748C318.596 64.748 318.378 64.966 318.378 65.2347V68.667C318.378 68.9357 318.596 69.1538 318.865 69.1538Z" fill="#9999EF"/>
<path d="M317.151 67.4402H320.584C320.852 67.4402 321.07 67.2222 321.07 66.9535C321.07 66.6848 320.852 66.4668 320.584 66.4668H317.151C316.883 66.4668 316.665 66.6848 316.665 66.9535C316.665 67.2222 316.883 67.4402 317.151 67.4402Z" fill="#9999EF"/>
</g>
<path d="M86.3297 96.0385C86.5984 96.0385 86.8164 95.8205 86.8164 95.5518V92.1195C86.8164 91.8508 86.5984 91.6328 86.3297 91.6328C86.061 91.6328 85.843 91.8508 85.843 92.1195V95.5518C85.843 95.8205 86.061 96.0385 86.3297 96.0385Z" fill="#9999EF"/>
<path d="M84.6122 94.325H88.0445C88.3132 94.325 88.5312 94.107 88.5312 93.8383C88.5312 93.5696 88.3132 93.3516 88.0445 93.3516H84.6122C84.3435 93.3516 84.1255 93.5696 84.1255 93.8383C84.1255 94.107 84.3435 94.325 84.6122 94.325Z" fill="#9999EF"/>
<path d="M62.9625 32.3725C63.2312 32.3725 63.4492 32.1545 63.4492 31.8858V28.4535C63.4492 28.1848 63.2312 27.9668 62.9625 27.9668C62.6938 27.9668 62.4758 28.1848 62.4758 28.4535V31.8858C62.4758 32.1545 62.6938 32.3725 62.9625 32.3725Z" fill="#9999EF"/>
<path d="M61.2451 30.6551H64.6774C64.9461 30.6551 65.1641 30.4371 65.1641 30.1684C65.1641 29.8997 64.9461 29.6816 64.6774 29.6816H61.2451C60.9764 29.6816 60.7584 29.8997 60.7584 30.1684C60.7584 30.4371 60.9764 30.6551 61.2451 30.6551Z" fill="#9999EF"/>
<path d="M76.0174 16.0775C76.9604 15.5908 78.0048 15.3677 78.8971 14.7796C81.4219 13.1217 81.868 9.58805 82.9023 6.8047C84.0633 3.67659 87.2015 1.9427 90.4665 2.27224C92.7835 2.50546 94.5782 3.88446 96.1093 5.54231C97.0979 6.61205 97.397 10.1863 100.444 10.2421C101.037 10.2522 101.504 9.73508 102 9.37512C103.466 8.31552 105.742 9.09628 106.396 10.8809C106.715 11.763 106.69 12.7973 107.197 13.5679C108.49 15.5401 111.689 13.9785 113.387 15.5401C114.001 16.1028 114.29 16.9799 114.822 17.6339C115.593 18.5871 116.779 18.9774 117.905 19.3019C121.012 20.1993 125.043 20.3362 125.043 21.3552C125.043 22.795 109.053 21.9332 99.6582 21.9332H84.1545C81.7464 21.9332 74.025 23.0739 74.1466 18.5871C74.1771 17.4514 75.0744 16.554 76.0124 16.0724L76.0174 16.0775Z" fill="white"/>
<path d="M306.784 32.9436C306.814 32.9132 306.844 32.8828 306.875 32.8524C307.782 31.8941 308.142 30.8497 309.643 30.7838C311.422 30.7027 314.322 31.1641 315.058 29.0043C315.499 27.7064 315.058 26.1956 316.006 25.06C316.665 24.264 317.76 23.9294 318.794 23.9801C320.563 24.0612 322.003 25.2932 323.732 25.5315C325.765 25.8103 326.728 23.8787 328.361 23.0675C331.251 21.6429 333.73 22.9053 335.21 24.0561C336.848 25.3337 337.902 27.2856 338.207 29.3288C338.577 31.813 336.29 34.2212 333.857 35.3112C332.655 35.8486 331.306 35.9754 329.988 35.9855C328.437 35.9957 326.886 35.945 325.344 35.9095C322.439 35.8436 298.743 36.0464 298.743 35.3112C298.743 34.8448 302.19 34.3987 302.677 34.2567C304.071 33.8562 305.678 34.0083 306.778 32.9487L306.784 32.9436Z" fill="#D9E8FF"/>
<g opacity="0.7">
<path d="M274.863 39.2758L275.847 39.8841L275.872 39.8994C276.08 40.0261 276.349 39.9653 276.481 39.7574C276.608 39.5495 276.547 39.2808 276.344 39.1541L275.32 38.5051C275.112 38.3733 274.838 38.4342 274.706 38.642C274.575 38.8499 274.635 39.1237 274.843 39.2555L274.869 39.2707L274.863 39.2758Z" fill="#B8E2FF"/>
<path d="M277.273 40.9228C277.892 41.4095 278.48 41.9317 279.048 42.4793C279.215 42.6415 279.489 42.6364 279.651 42.4691C279.813 42.3018 279.808 42.0331 279.641 41.8658C279.058 41.298 278.449 40.7555 277.816 40.2435C277.628 40.0914 277.354 40.1218 277.207 40.3094C277.055 40.497 277.086 40.7707 277.273 40.9178V40.9228Z" fill="#B8E2FF"/>
<path d="M280.288 43.7529C280.821 44.336 281.328 44.9393 281.809 45.5679C281.946 45.7504 282.205 45.7809 282.387 45.644C282.565 45.5071 282.6 45.2485 282.463 45.066C281.972 44.4171 281.454 43.7935 280.907 43.1902C280.75 43.0178 280.486 43.0026 280.314 43.1597C280.141 43.3169 280.126 43.5805 280.283 43.7529H280.288Z" fill="#B8E2FF"/>
<path d="M282.849 47.0069C283.29 47.6609 283.701 48.3352 284.081 49.0298C284.188 49.2225 284.431 49.2935 284.624 49.187C284.816 49.0805 284.887 48.8422 284.786 48.6496C284.401 47.9347 283.98 47.2351 283.534 46.5557C283.412 46.3681 283.158 46.3174 282.971 46.4391C282.783 46.5608 282.733 46.8143 282.854 47.0019L282.849 47.0069Z" fill="#B8E2FF"/>
<path d="M284.866 50.6124C285.191 51.3272 285.475 52.0624 285.713 52.8127C285.779 53.0155 285.992 53.127 286.195 53.0611C286.398 52.9952 286.509 52.7823 286.448 52.5795C286.205 51.7987 285.916 51.0332 285.586 50.2879C285.5 50.0902 285.267 49.9989 285.069 50.0902C284.872 50.1764 284.78 50.4096 284.872 50.6073L284.866 50.6124Z" fill="#B8E2FF"/>
<path d="M286.159 54.5158C286.317 55.2813 286.418 56.057 286.443 56.8378C286.448 57.0406 286.621 57.2028 286.824 57.1977C287.026 57.1927 287.189 57.0203 287.183 56.8175C287.163 55.9911 287.062 55.1749 286.9 54.3687C286.859 54.166 286.661 54.0291 286.453 54.0696C286.246 54.1102 286.114 54.3079 286.154 54.5158H286.159Z" fill="#B8E2FF"/>
<path d="M286.374 58.5762C286.282 59.3469 286.105 60.1023 285.841 60.8273C285.775 61.0098 285.867 61.2176 286.054 61.2835C286.237 61.3495 286.44 61.2582 286.511 61.0757C286.8 60.3 286.997 59.4838 287.099 58.6624C287.124 58.4647 286.982 58.2822 286.784 58.2568C286.587 58.2315 286.404 58.3735 286.379 58.5712L286.374 58.5762Z" fill="#B8E2FF"/>
<path d="M285.096 62.3945C284.7 63.0586 284.224 63.6721 283.681 64.2297C283.549 64.3666 283.555 64.5796 283.691 64.7114C283.828 64.8432 284.041 64.8381 284.173 64.7063C284.751 64.1182 285.268 63.4642 285.699 62.7494C285.8 62.582 285.745 62.3691 285.582 62.2677C285.42 62.1663 285.202 62.2221 285.101 62.3843L285.096 62.3945Z" fill="#B8E2FF"/>
<path d="M282.371 65.3916C281.753 65.8631 281.084 66.2839 280.394 66.654C280.232 66.7401 280.171 66.9379 280.257 67.0951C280.343 67.2522 280.541 67.313 280.698 67.2319C281.423 66.8517 282.118 66.4207 282.777 65.929C282.924 65.8174 282.954 65.6045 282.843 65.4575C282.731 65.3105 282.518 65.28 282.371 65.3916Z" fill="#B8E2FF"/>
<path d="M278.792 67.3979C278.062 67.6869 277.311 67.9252 276.546 68.1077C276.379 68.1482 276.272 68.3155 276.313 68.4829C276.353 68.6502 276.521 68.7566 276.688 68.7161C277.484 68.5335 278.265 68.2953 279.025 67.9962C279.192 67.9302 279.273 67.7477 279.208 67.5804C279.142 67.4131 278.959 67.332 278.792 67.3979Z" fill="#B8E2FF"/>
<path d="M274.809 68.4116C274.029 68.5079 273.243 68.5434 272.457 68.518C272.295 68.518 272.158 68.6448 272.153 68.807C272.153 68.9692 272.274 69.1061 272.442 69.1112C273.258 69.1416 274.074 69.1112 274.885 69.0149C275.053 68.9946 275.174 68.8425 275.154 68.6752C275.134 68.5079 274.982 68.3862 274.814 68.4065L274.809 68.4116Z" fill="#B8E2FF"/>
<path d="M270.691 68.372C269.91 68.2604 269.144 68.088 268.389 67.8599C268.242 67.8143 268.08 67.9005 268.034 68.0475C267.988 68.1945 268.069 68.3517 268.222 68.3973C269.002 68.6407 269.798 68.8283 270.604 68.9499C270.762 68.9753 270.914 68.8637 270.934 68.7066C270.959 68.5494 270.848 68.3973 270.691 68.377V68.372Z" fill="#B8E2FF"/>
<path d="M266.737 67.2408C266.022 66.9214 265.327 66.5411 264.699 66.0899C264.577 66.0037 264.41 66.0291 264.324 66.1508C264.237 66.2724 264.263 66.4397 264.384 66.5259C265.049 67.0126 265.768 67.4132 266.514 67.7478C266.651 67.8086 266.818 67.7478 266.879 67.6109C266.94 67.474 266.879 67.3067 266.742 67.2459L266.737 67.2408Z" fill="#B8E2FF"/>
<path d="M263.394 64.93C262.887 64.3521 262.486 63.6829 262.273 62.9528C262.233 62.8159 262.091 62.7399 261.959 62.7804C261.827 62.821 261.746 62.9579 261.787 63.0948C262.02 63.9059 262.456 64.6512 263.004 65.2748C263.1 65.3863 263.262 65.3965 263.374 65.3001C263.485 65.2038 263.495 65.0416 263.399 64.93H263.394Z" fill="#B8E2FF"/>
<path d="M262.098 61.2583C262.154 60.4978 262.367 59.7322 262.681 59.0326C262.737 58.9058 262.681 58.7639 262.56 58.7132C262.438 58.6574 262.301 58.7132 262.245 58.8298C262.068 59.2151 261.931 59.5953 261.82 59.9959C261.708 60.3964 261.632 60.807 261.602 61.2228C261.591 61.3596 261.693 61.4763 261.83 61.4915C261.967 61.5016 262.083 61.4002 262.098 61.2633V61.2583Z" fill="#B8E2FF"/>
<path d="M263.676 57.65C264.233 57.1278 264.923 56.7628 265.663 56.5397C265.78 56.5042 265.851 56.3775 265.815 56.2609C265.78 56.1443 265.653 56.0733 265.536 56.1088C264.74 56.342 263.98 56.7374 263.361 57.3103C263.265 57.3965 263.26 57.5436 263.346 57.6399C263.432 57.7362 263.579 57.7413 263.676 57.6551V57.65Z" fill="#B8E2FF"/>
<path d="M267.386 56.2447C268.167 56.2041 268.953 56.2599 269.734 56.3917C269.85 56.412 269.957 56.3359 269.977 56.2193C269.997 56.1027 269.921 55.9963 269.805 55.976C269.004 55.834 268.182 55.7681 267.366 55.8087C267.245 55.8138 267.153 55.9152 267.158 56.0368C267.163 56.1585 267.265 56.2498 267.386 56.2447Z" fill="#B8E2FF"/>
<path d="M271.457 56.8028C272.213 57.031 272.953 57.3149 273.673 57.6495C273.769 57.6951 273.886 57.6495 273.931 57.5532C273.977 57.4568 273.931 57.3402 273.835 57.2946C273.105 56.9499 272.35 56.6507 271.574 56.4125C271.467 56.377 271.351 56.4378 271.315 56.5493C271.28 56.6609 271.341 56.7724 271.452 56.8079L271.457 56.8028Z" fill="#B8E2FF"/>
<path d="M275.252 58.4747C275.936 58.8752 276.595 59.3214 277.229 59.798C277.31 59.8588 277.422 59.8436 277.482 59.7625C277.543 59.6813 277.528 59.5698 277.447 59.509C276.808 59.0121 276.139 58.5558 275.444 58.1452C275.353 58.0894 275.236 58.1198 275.186 58.2111C275.13 58.3023 275.16 58.419 275.252 58.4697V58.4747Z" fill="#B8E2FF"/>
<path d="M278.597 60.9503C279.18 61.4877 279.732 62.0606 280.244 62.669C280.305 62.74 280.412 62.7501 280.483 62.6893C280.554 62.6284 280.564 62.527 280.503 62.456C279.986 61.8325 279.428 61.2444 278.84 60.6968C278.769 60.6309 278.658 60.636 278.592 60.707C278.526 60.7779 278.531 60.8895 278.602 60.9554L278.597 60.9503Z" fill="#B8E2FF"/>
<path d="M281.322 64.0886C281.769 64.7426 282.174 65.427 282.524 66.1419C282.559 66.2179 282.656 66.2483 282.727 66.2129C282.803 66.1774 282.833 66.0861 282.798 66.0101C282.443 65.2851 282.037 64.5804 281.586 63.9111C281.535 63.8351 281.434 63.8199 281.363 63.8655C281.287 63.9162 281.272 64.0176 281.317 64.0886H281.322Z" fill="#B8E2FF"/>
<path d="M283.224 67.783C283.493 68.5283 283.706 69.2938 283.858 70.0746C283.873 70.1506 283.944 70.2013 284.02 70.1861C284.096 70.1709 284.142 70.1 284.131 70.0239C283.979 69.2279 283.771 68.4472 283.498 67.6867C283.472 67.6106 283.386 67.5701 283.31 67.5954C283.234 67.6208 283.193 67.707 283.219 67.783H283.224Z" fill="#B8E2FF"/>
<path d="M284.1 71.8454C284.161 72.6363 284.161 73.4323 284.105 74.2282C284.105 74.2992 284.151 74.355 284.222 74.36C284.287 74.36 284.348 74.3144 284.353 74.2434C284.414 73.4373 284.419 72.6312 284.363 71.8251C284.358 71.7541 284.293 71.6984 284.222 71.7034C284.151 71.7085 284.095 71.7744 284.1 71.8454Z" fill="#B8E2FF"/>
<path d="M283.887 76.0022C283.751 76.788 283.558 77.5586 283.32 78.3191C283.299 78.3749 283.335 78.4408 283.391 78.456C283.446 78.4763 283.512 78.4408 283.528 78.385C283.771 77.6195 283.974 76.8336 284.116 76.0427C284.126 75.9768 284.085 75.916 284.019 75.9058C283.953 75.8957 283.893 75.9363 283.882 76.0022H283.887Z" fill="#B8E2FF"/>
<path d="M282.718 80.006C282.413 80.7412 282.069 81.4662 281.678 82.1557C281.653 82.2013 281.668 82.2621 281.714 82.2875C281.759 82.3128 281.82 82.2976 281.846 82.252C282.251 81.5523 282.601 80.8274 282.91 80.0821C282.931 80.0314 282.91 79.9655 282.855 79.9452C282.799 79.9249 282.738 79.9452 282.718 80.001V80.006Z" fill="#B8E2FF"/>
<path d="M280.7 83.6575C280.229 84.2963 279.696 84.8945 279.118 85.437C279.083 85.4674 279.083 85.5232 279.118 85.5587C279.149 85.5942 279.205 85.5942 279.24 85.5587C279.833 85.0111 280.371 84.4078 280.857 83.7589C280.888 83.7183 280.878 83.6575 280.837 83.6271C280.796 83.5966 280.736 83.6068 280.705 83.6473L280.7 83.6575Z" fill="#B8E2FF"/>
<path d="M277.719 86.5512C277.06 86.9973 276.355 87.3776 275.62 87.6818C275.58 87.697 275.565 87.7426 275.58 87.7781C275.595 87.8187 275.641 87.8339 275.676 87.8187C276.421 87.5145 277.136 87.1342 277.805 86.683C277.841 86.6577 277.851 86.607 277.826 86.5715C277.8 86.536 277.75 86.5258 277.714 86.5512H277.719Z" fill="#B8E2FF"/>
<path d="M273.923 88.2498C273.153 88.4476 272.362 88.5794 271.566 88.6453C271.53 88.6453 271.505 88.6808 271.51 88.7163C271.51 88.7518 271.546 88.7771 271.581 88.772C272.382 88.7061 273.178 88.5794 273.959 88.3817C273.994 88.3715 274.02 88.336 274.009 88.2955C273.999 88.2549 273.964 88.2346 273.923 88.2448V88.2498Z" fill="#B8E2FF"/>
<path d="M269.768 88.7114C268.972 88.7013 268.171 88.6405 267.381 88.5391C267.35 88.5391 267.325 88.5543 267.32 88.5847C267.32 88.6151 267.335 88.6405 267.365 88.6455C268.161 88.752 268.962 88.8179 269.763 88.8331C269.794 88.8331 269.824 88.8078 269.824 88.7773C269.824 88.7469 269.799 88.7165 269.768 88.7165V88.7114Z" fill="#B8E2FF"/>
<path d="M265.607 88.2504C264.821 88.0932 264.045 87.9056 263.275 87.6927C263.254 87.6876 263.229 87.6978 263.224 87.7231C263.219 87.7434 263.229 87.7687 263.254 87.7738C264.025 87.9918 264.806 88.1845 265.592 88.3467C265.617 88.3518 265.642 88.3365 265.647 88.3112C265.653 88.2858 265.637 88.2605 265.612 88.2554L265.607 88.2504Z" fill="#B8E2FF"/>
<path d="M261.552 87.1662C260.792 86.9127 260.041 86.6389 259.296 86.3398C259.281 86.3347 259.261 86.3398 259.256 86.355C259.25 86.3702 259.256 86.3905 259.271 86.3956C260.016 86.6947 260.766 86.9735 261.527 87.2321C261.547 87.2372 261.567 87.2321 261.572 87.2067C261.578 87.1865 261.572 87.1662 261.547 87.1611L261.552 87.1662Z" fill="#B8E2FF"/>
<path d="M257.635 85.644L255.46 84.625C255.46 84.625 255.44 84.625 255.435 84.6351C255.435 84.6453 255.435 84.6554 255.445 84.6605L257.615 85.6947C257.615 85.6947 257.645 85.6947 257.65 85.6846C257.655 85.6694 257.65 85.6542 257.64 85.6491L257.635 85.644Z" fill="#B8E2FF"/>
<path d="M253.858 83.7993L251.764 82.623H251.754V82.6332L253.843 83.8246C253.843 83.8246 253.858 83.8246 253.863 83.8195C253.863 83.8145 253.863 83.8043 253.858 83.7993Z" fill="#B8E2FF"/>
<path d="M250.221 81.6743L249.233 81.0254L250.221 81.6845L250.227 81.6794H250.221V81.6743Z" fill="#B8E2FF"/>
</g>
<path d="M269.345 23.5024C269.294 23.3807 275.773 27.3961 275.773 27.3961L274.09 38.3115L270.911 30.1439L262.536 28.5469L250.602 17.3223L269.345 23.4974V23.5024Z" fill="#BDD5FF"/>
<path d="M250.601 17.3262L274.09 38.3103L270.911 30.1428L250.601 17.3262Z" fill="#8ABAFF"/>
<path d="M250.603 17.3262L281.676 23.9221L275.774 27.3949L250.603 17.3262L270.912 30.1428L260.874 36.3432L250.603 17.3262Z" fill="#DEEBFF"/>
<g opacity="0.5">
<mask id="mask1_4407_4021" style="mask-type:luminance" maskUnits="userSpaceOnUse" x="92" y="124" width="59" height="45">
<path d="M92.7784 124.205H150.691V168.424H92.7784V124.205Z" fill="white"/>
</mask>
<g mask="url(#mask1_4407_4021)">
<g style="mix-blend-mode:multiply" opacity="0.2">
<path d="M62.7661 158.032C64.2718 158.032 65.7117 158.291 67.0602 158.747C67.3847 147.522 76.5763 138.523 87.8821 138.523C99.1879 138.523 108.719 147.852 108.719 159.361C108.719 159.888 108.694 160.405 108.653 160.922C110.666 157.53 114.352 155.249 118.58 155.249C124.953 155.249 130.124 160.415 130.124 166.793C130.124 167.695 130.008 168.572 129.815 169.414C131.006 168.75 132.375 168.37 133.835 168.37C138.408 168.37 142.109 172.076 142.109 176.644C142.109 181.212 138.403 184.918 133.835 184.918H62.7711C55.3438 184.918 49.3259 178.9 49.3259 171.472C49.3259 164.045 55.3438 158.027 62.7711 158.027L62.7661 158.032Z" fill="#5275A0"/>
</g>
</g>
</g>
<g style="mix-blend-mode:multiply" opacity="0.55">
<path d="M95.709 191.505C68.4453 191.505 46.3438 189.757 46.3438 187.601C46.3438 185.445 68.4453 183.697 95.709 183.697C122.973 183.697 145.074 185.445 145.074 187.601C145.074 189.757 122.973 191.505 95.709 191.505Z" fill="#D9E8FF"/>
</g>
<path d="M80.741 156.507C83.4584 147.153 81.4406 137.069 78.2314 127.872C77.4608 125.662 76.5786 123.406 74.9259 121.748C74.0792 120.901 72.9131 120.201 71.7369 120.44C70.0132 120.79 69.2932 122.838 69.0955 124.587C67.8686 135.614 75.1337 145.718 76.9741 156.659" fill="#BDD0FF"/>
<path d="M88.4752 151.812C89.0075 149.033 89.7477 146.27 91.0659 143.771C92.3841 141.271 94.3207 139.036 96.8202 137.717C97.9305 137.134 99.4109 136.779 100.349 137.616C101.378 138.534 101.048 140.217 100.44 141.454C97.1041 148.227 88.5766 151.259 85.3319 158.078" fill="#BDD0FF"/>
<path d="M84.5413 157.332C86.6554 153.383 88.6986 149.352 89.8647 145.023C91.0307 140.698 91.2791 136.019 89.819 131.78C89.3678 130.472 88.2474 128.977 86.9393 129.428C86.4577 129.595 86.1028 130.001 85.7936 130.406C83.36 133.61 82.4272 137.702 81.9861 141.702C81.545 145.702 81.5349 149.763 80.6527 153.687C80.5209 154.27 80.3587 154.879 79.948 155.315C79.5374 155.751 78.8022 155.938 78.3307 155.568C78.0671 155.36 77.9353 155.026 77.8339 154.706C77.2762 152.957 68.6017 134.944 60.7383 133.681C60.1046 133.58 59.4506 133.509 58.8168 133.616C48.961 135.253 71.1619 155.847 71.3293 158.914C63.2986 152.029 61.5951 150.762 57.9347 150.098C55.1159 149.591 50.2082 152.09 51.8204 155.533C52.9358 157.915 55.7242 158.98 58.3099 159.497C61.1287 160.06 64.0287 160.242 66.7917 161.023C69.5548 161.804 72.2773 163.32 73.6867 165.829" fill="#BDD0FF"/>
<path d="M62.3559 160.71C63.8617 160.71 65.3015 160.969 66.6501 161.425C66.9745 150.2 76.1662 141.201 87.472 141.201C98.7778 141.201 108.309 150.53 108.309 162.038C108.309 162.566 108.284 163.083 108.243 163.6C110.256 160.208 113.942 157.927 118.17 157.927C124.543 157.927 129.714 163.093 129.714 169.471C129.714 170.373 129.597 171.25 129.405 172.092C130.596 171.428 131.965 171.047 133.425 171.047C137.998 171.047 141.699 174.753 141.699 179.321C141.699 183.889 137.993 187.595 133.425 187.595H62.361C54.9336 187.595 48.9157 181.578 48.9157 174.15C48.9157 166.723 54.9336 160.705 62.361 160.705L62.3559 160.71Z" fill="white"/>
<path d="M302.148 172.826C302.148 173.977 292.764 174.91 281.185 174.91C269.605 174.91 260.221 173.977 260.221 172.826C260.221 171.675 269.605 170.742 281.185 170.742C292.764 170.742 302.148 171.675 302.148 172.826Z" fill="#D9E8FF"/>
<path d="M269.928 169.872C269.751 170.196 268.909 170.941 267.738 171.433C266.572 171.925 264.093 172.153 265.472 172.589C266.846 173.02 268.448 172.761 269.264 172.635C270.075 172.513 270.861 172.493 271.819 172.488C273.082 172.477 273.092 172.407 272.924 171.063C272.691 169.218 270.496 168.822 269.928 169.867V169.872Z" fill="#222B70"/>
<path d="M292.821 169.203C292.75 169.578 293.313 170.704 292.309 171.535C291.305 172.361 289.024 173.233 290.534 173.269C292.045 173.299 293.495 172.97 294.266 172.615C295.036 172.255 294.423 171.692 295.376 171.408C296.633 171.033 296.375 170.166 295.721 169.624C294.884 167.849 293.049 167.996 292.821 169.203Z" fill="#222B70"/>
<path d="M288.005 131.604C288.005 131.604 291.016 123.264 282.473 116.395C282.473 116.395 277.895 118.113 274.23 118.321C271.345 118.483 269.875 118.235 269.875 118.235C269.875 118.235 269.631 125.642 269.621 129.637L288 131.609L288.005 131.604Z" fill="#4460EA"/>
<path d="M268.931 145.454C268.764 141.728 273.058 142.215 274.64 144.998C277.91 150.758 273.433 164.025 272.84 170.307C272.227 170.53 271.193 170.707 270.574 170.439C270.148 170.256 269.915 169.754 269.915 169.754C270.011 162.043 269.104 149.439 268.931 145.449V145.454Z" fill="#4460EA"/>
<path d="M274.491 146.017C273.999 147.538 268.519 149.14 268.965 143.599C269.162 141.14 269.685 127.568 269.786 126.26C269.887 124.952 270.121 123.041 270.79 122.803C274.146 121.611 280.083 125.743 279.201 130.656C278.613 133.941 275.515 142.859 274.491 146.017Z" fill="#4460EA"/>
<path d="M283.111 148.136C281.788 144.618 286.087 143.999 288.531 146.164C294.245 151.239 294.468 163.194 295.867 169.364C295.071 169.876 293.809 170.058 293.368 170.038C292.901 170.013 292.688 169.709 292.688 169.709C290.366 162.317 284.531 151.893 283.111 148.136Z" fill="#4460EA"/>
<path d="M288.762 146.986C288.909 148.572 284.346 151.848 282.547 146.555C281.751 144.207 278.339 130.336 277.908 129.084C277.482 127.837 277.598 125.256 278.126 124.8C280.762 122.508 286.709 124.521 287.85 129.388C288.61 132.643 288.453 143.695 288.762 146.98V146.986Z" fill="#4460EA"/>
<path d="M267.359 93.9707C267.359 93.9707 264.139 97.8086 263.789 111.081L267.43 112.374L270.953 102.508L267.359 93.9707Z" fill="#92A7F4"/>
<path d="M269.987 100.207C270.134 101.55 270.271 102.934 270.367 104.146L269.612 106.265C268.517 103.38 266.747 97.261 266.342 95.8415C266.915 94.503 267.361 93.9707 267.361 93.9707L269.987 100.207Z" fill="#7C98E5"/>
<path d="M273.218 77.3301C272.468 77.5329 272.067 78.4505 271.814 79.0741C271.504 79.8295 271.352 80.6306 271.251 81.4316C271.18 81.9893 271.139 82.5723 271.373 83.0894C271.494 83.3531 271.677 83.5812 271.864 83.8094C271.971 83.9361 272.077 84.0679 272.219 84.1592C272.361 84.2504 272.549 84.2961 272.711 84.2403C272.944 84.1541 273.041 83.8955 273.106 83.6674C273.542 82.1819 274.014 80.6762 274.906 79.3834" fill="#3B2E7A"/>
<path d="M272.387 82.0457C272.372 81.5742 271.844 81.2649 271.383 81.7516C271.003 82.1572 270.901 82.9278 270.881 83.4957C270.856 84.1801 271.418 84.3119 271.88 84.4082" fill="#F2A181"/>
<path d="M267.356 93.9697C268.284 92.9659 271.23 91.3131 275.169 91.4297C277.881 91.5108 285.273 91.9316 286.1 93.6401C286.52 94.5122 286.977 103.466 286.358 106.553C285.892 108.875 284.705 114.624 284.705 116.013C284.705 117.403 285.496 117.996 285.126 118.401C284.3 119.304 278.647 119.684 275.99 119.684C273.628 119.684 269.607 119.091 269.399 118.376C269.095 117.316 269.861 117.357 269.962 116.247C270.064 115.136 270.363 107.932 269.932 106.756C269.151 104.627 268.771 101.154 268.147 99.582C267.676 98.3855 266.428 94.9735 267.356 93.9697Z" fill="#92A7F4"/>
<path d="M284.287 101.209C284.571 101.762 286.483 104.657 286.483 104.657L286.559 105.002C286.513 105.6 286.447 106.132 286.366 106.548C285.9 108.87 284.713 114.619 284.713 116.008C284.713 117.397 285.469 117.965 285.134 118.396C284.48 119.228 273.818 121.098 274.345 118.776C274.391 118.568 283.294 112.165 283.344 111.952C283.755 110.117 284.11 108.794 284.292 107.455C284.723 104.231 284.008 100.657 284.292 101.209H284.287Z" fill="#7C98E5"/>
<path d="M273.024 88.2267C273.024 88.2267 272.998 91.1368 272.871 91.2585C272.745 91.3751 272.136 91.6489 272.136 91.6489C272.136 91.6489 272.572 94.1787 273.247 93.9911C273.921 93.8036 278.367 91.6894 278.367 91.6894C278.367 91.6894 277.739 91.4461 277.739 91.2129C277.739 90.9796 278.337 86.3965 278.337 86.3965" fill="#FFBE9D"/>
<path d="M276.112 77.6457C275.463 77.813 273.755 77.4784 273.283 78.1425C272.812 78.8067 272.401 80.4189 272.224 80.86C271.874 81.7421 271.641 82.6902 271.387 83.5977C271.052 84.7841 270.505 86.959 271.737 87.9527C272.092 88.2366 272.249 88.333 272.69 88.409C273.273 88.5104 273.856 88.6219 274.439 88.7183C275.342 88.8704 276.345 89.0478 277.243 88.774C278.444 88.409 279.103 86.8526 279.408 85.798L281.172 79.7497L276.107 77.6406L276.112 77.6457Z" fill="#FFBE9D"/>
<path d="M272.917 95.127C272.917 95.127 272.658 106.489 272.167 113.404L273.941 115.711L275.163 112.826C275.163 112.826 275.68 104.491 274.007 95.2081L272.917 95.127Z" fill="#4460EA"/>
<path d="M272.507 94.1277L272.547 94.2849C272.628 94.579 272.75 94.8629 272.912 95.1265L274.002 95.2076C274.002 95.2076 274.742 94.8426 274.839 94.4522C274.935 94.0618 273.622 93.418 273.622 93.418L273.465 93.4788C273.095 93.6157 272.77 93.8337 272.517 94.1227L272.501 94.1379L272.507 94.1277Z" fill="#2B50D8"/>
<path d="M277.816 90.502C277.816 90.502 278.511 90.9075 279.059 91.6883C278.501 92.8949 277.233 95.0395 275.839 96.0129C275.19 94.3652 273.629 93.412 273.629 93.412C273.629 93.412 277.426 92.7733 277.816 90.502Z" fill="white"/>
<path d="M273.629 93.4084C273.629 93.4084 272.27 93.9154 271.464 95.3451C271.464 95.3451 271.206 93.4084 271.758 91.7455C271.758 91.7455 272.65 90.6707 272.96 90.6504C272.833 92.0193 273.629 93.4084 273.629 93.4084Z" fill="white"/>
<path d="M273.802 118.781C272.453 118.974 271.956 119.445 271.196 120.15C271.135 120.206 271.069 120.282 271.084 120.363C271.099 120.464 271.226 120.51 271.338 120.525C271.966 120.622 272.068 120.241 272.651 120.013C273.046 119.856 273.437 119.699 273.832 119.537" fill="#F2A181"/>
<path d="M269.221 109.524L273.997 123.948C274.123 124.333 273.89 124.668 273.49 124.673L263.522 125.5C263.162 125.5 262.802 125.236 262.686 124.891L257.55 110.685C257.423 110.3 258.016 109.742 258.417 109.742L268.384 108.916C268.744 108.916 269.104 109.18 269.221 109.524Z" fill="#CECAFF"/>
<path d="M268.892 109.899L273.602 124.105C273.729 124.49 273.496 124.825 273.095 124.83L263.128 125.657C262.768 125.657 262.408 125.393 262.291 125.048L257.581 110.842C257.455 110.457 257.688 110.122 258.088 110.117L268.056 109.291C268.416 109.291 268.776 109.555 268.892 109.899Z" fill="white"/>
<path d="M277.599 117.773C276.554 117.981 273.766 118.762 273.472 118.894C273.122 119.051 271.966 119.872 271.692 120.131C270.643 121.12 271.18 121.586 270.764 122.929C270.744 123 270.739 123.071 270.739 123.142C270.739 123.284 270.942 123.401 271.145 123.274C271.256 123.447 271.576 123.34 271.733 123.153C271.733 123.284 271.93 123.371 272.25 123.203C272.422 123.112 272.392 123.122 272.792 122.782C273.076 122.539 273.411 122.352 273.928 122.134C274.273 121.986 274.719 121.855 275.033 121.657C275.459 121.393 276.209 121.332 276.585 120.192C276.666 119.938 276.929 119.786 277.168 119.644C277.735 119.31 278.303 118.975 278.871 118.635" fill="#FFBE9D"/>
<path d="M284.027 99.2937C284.468 100.784 286.313 111.107 286.313 111.107L275.92 118.194L276.787 120.334C276.787 120.334 289.218 116.399 290.197 113.712C291.175 111.025 291.13 98.878 287.677 94.6193C286.577 93.2657 284.377 92.5762 284.377 92.5762" fill="#92A7F4"/>
<path d="M273.371 121.488C273.204 121.564 273.042 121.651 272.884 121.747C272.727 121.833 272.57 121.96 272.448 122.097C272.317 122.223 272.215 122.381 272.099 122.523C271.997 122.675 271.896 122.822 271.805 122.989C271.957 122.882 272.088 122.751 272.215 122.619C272.332 122.477 272.459 122.35 272.57 122.213C272.687 122.071 272.808 121.965 272.95 121.843C273.092 121.732 273.229 121.61 273.366 121.488H273.371Z" fill="#F2A181"/>
<path d="M272.797 120.84C272.584 120.936 272.417 121.103 272.259 121.271C272.102 121.443 271.955 121.61 271.844 121.834L271.54 122.437C271.443 122.64 271.342 122.842 271.261 123.06C271.413 122.888 271.545 122.7 271.671 122.508C271.783 122.31 271.91 122.117 271.996 121.905C272.082 121.717 272.229 121.534 272.356 121.352C272.493 121.174 272.619 120.987 272.797 120.845V120.84Z" fill="#F2A181"/>
<path d="M272.137 120.32C271.985 120.477 271.807 120.609 271.65 120.766C271.574 120.842 271.488 120.928 271.427 121.029C271.366 121.126 271.32 121.222 271.27 121.323C271.077 121.724 270.94 122.155 270.93 122.601C271.102 122.19 271.249 121.79 271.422 121.389C271.518 121.186 271.574 120.989 271.726 120.832C271.863 120.664 272.02 120.502 272.137 120.314V120.32Z" fill="#F2A181"/>
<path d="M280.07 84.753C279.665 84.5299 279.35 84.2916 279.087 84.6617C278.945 84.8544 278.859 85.1282 278.62 85.1941C278.382 85.26 278.134 85.0572 278.073 84.829C278.012 84.6009 278.088 84.3626 278.164 84.1395C278.326 83.6427 278.494 83.1458 278.656 82.6541C278.818 82.1674 278.975 81.635 278.772 81.1635C278.671 80.9252 278.478 80.7275 278.276 80.5602C277.601 80.0127 276.724 79.749 275.852 79.5817C274.98 79.4144 274.088 79.3282 273.241 79.0747C272.886 78.9683 272.531 78.8314 272.248 78.6033C271.786 78.2332 271.548 77.6552 271.543 77.0874C271.538 76.5195 271.746 75.9618 272.055 75.4751C272.121 75.6678 272.207 75.8605 272.313 76.0328C272.42 75.7743 272.582 75.5309 272.79 75.3281C273.044 76.6615 278.996 76.2154 280.39 76.8035C281.353 77.209 282.149 77.4777 282.124 78.948C282.149 79.0443 282.235 79.1153 282.311 79.1812C283.163 79.9214 283.533 80.8188 283.645 82.1572C283.776 83.7897 282.768 85.5591 281.774 86.9077C281.525 87.2474 281.389 87.4857 281.039 87.7341C280.689 87.9825 280.086 88.1042 279.655 88.0281C279.224 87.9521 278.377 87.9876 278.372 87.5718C278.367 87.2778 279.036 86.7505 279.219 86.5122" fill="#3B2E7A"/>
<path d="M278.516 86.2988C278.516 86.2988 278.445 86.5726 278.628 86.7906C278.785 86.9782 279.109 86.9528 279.332 86.8869C279.966 86.6942 280.402 86.1112 280.519 85.513C280.661 84.8083 280.255 84.0985 279.571 84.281C279.17 84.3875 278.917 84.8184 278.922 85.2088" fill="#FFBE9D"/>
<path d="M273.03 88.4746L274.941 88.8041C274.941 88.8041 274.303 89.4784 273.005 89.4784" fill="#F2A181"/>
<path d="M114.297 109.278L111.833 110.459L112.745 108.092" fill="#9999EF"/>
<path d="M111.842 105.917C111.842 108.209 113.693 110.065 115.985 110.07C118.276 110.07 120.132 108.219 120.137 105.928C120.137 103.636 118.286 101.78 115.995 101.775C113.703 101.775 111.848 103.626 111.842 105.917Z" fill="#9999EF"/>
<path d="M117.809 106.119L116.176 107.701L113.996 104.75" stroke="white" stroke-width="0.882156" stroke-linecap="round" stroke-linejoin="round"/>
<path d="M99.1069 193.057L99.7812 157.035H97.3832L98.0575 193.057C98.0676 193.422 98.3009 193.716 98.5797 193.716C98.8585 193.716 99.0968 193.422 99.1019 193.057H99.1069Z" fill="#BDD0FF"/>
<path d="M77.0832 189.311L91 156.083L88.7743 155.201L76.1098 188.931C75.9831 189.276 76.0895 189.636 76.3532 189.737C76.6168 189.838 76.9413 189.651 77.0832 189.316V189.311Z" fill="#BDD0FF"/>
<path d="M120.075 190.137L106.158 156.909L108.384 156.027L121.048 189.757C121.175 190.102 121.069 190.462 120.805 190.563C120.541 190.665 120.217 190.477 120.075 190.142V190.137Z" fill="#BDD0FF"/>
<path d="M88.389 156.231L89.8035 156.794L76.7233 189.712C76.8703 189.642 77.0072 189.505 77.0832 189.317L91 156.089L88.7743 155.207L88.389 156.236V156.231Z" fill="#A3BCEF"/>
<path d="M97.4007 157.984H99.1853L98.5161 193.711C98.5161 193.711 98.5567 193.721 98.577 193.721C98.8609 193.721 99.0941 193.427 99.0991 193.062L99.7734 157.041H97.3754L97.3906 157.989L97.4007 157.984Z" fill="#A3BCEF"/>
<path d="M121.056 189.747L108.392 156.018L106.166 156.9L106.419 157.513L107.798 156.966L120.392 190.498C120.529 190.579 120.681 190.604 120.813 190.553C121.076 190.447 121.183 190.087 121.056 189.747Z" fill="#A3BCEF"/>
<path d="M115.095 161.321C112.667 163.298 109.062 165.118 99.916 165.301C87.8853 165.539 81.5834 164.17 78.1663 157.965C72.4577 147.602 79.6011 114.126 90.8714 121.538C100.291 127.738 102.177 147.531 103.424 150.264C104.672 153.001 120.991 156.52 115.095 161.316V161.321Z" fill="#E8F6F7"/>
<path d="M101.999 162.736C89.9684 162.974 83.6666 161.605 80.2495 155.405C76.3508 148.332 78.4446 130.491 83.7477 122.232C76.9592 128.524 73.7905 150.03 78.1658 157.97C81.5829 164.175 87.8847 165.539 99.9155 165.306C109.062 165.123 112.661 163.303 115.095 161.326C115.921 160.652 116.311 160.003 116.367 159.379C113.929 161.103 110.187 162.578 102.004 162.741L101.999 162.736Z" fill="#D0E0E2"/>
<path d="M106.944 113.689C107.446 113.891 107.831 114.368 107.922 114.905C108.014 115.443 107.811 116.021 107.405 116.381C107.872 116.396 108.186 116.933 108.13 117.395C108.075 117.861 107.76 118.246 107.441 118.591C107.071 118.981 106.625 119.372 106.087 119.382C105.697 119.387 105.332 119.189 105.043 118.926C104.84 118.738 104.663 118.51 104.556 118.256C104.434 117.962 104.409 117.643 104.384 117.329C104.292 116.223 104.196 115.118 104.105 114.013C104.085 113.79 104.08 113.531 104.237 113.369" fill="#153351"/>
<path d="M97.4073 120.994C97.3363 122.434 97.4377 124.938 97.0271 125.309C96.6164 125.679 93.7164 125.663 93.7164 125.663C93.7164 125.663 100.039 131.626 100.464 131.296C100.89 130.967 106.508 126.388 105.245 126.15C103.983 125.912 102.746 125.963 102.781 125.309C102.817 124.655 102.852 124.001 102.888 123.347" fill="#FFBE9D"/>
<path d="M97.4073 120.994C97.3363 122.434 97.4377 124.938 97.0271 125.309C96.6164 125.679 93.7164 125.663 93.7164 125.663C93.7164 125.663 100.039 131.626 100.464 131.296C100.89 130.967 106.508 126.388 105.245 126.15C103.983 125.912 102.746 125.963 102.781 125.309C102.817 124.655 102.852 124.001 102.888 123.347" fill="#FFBE9D"/>
<path d="M88.1737 142.667L91.0128 152.006L91.9913 153.081C91.9913 153.081 100.488 154.044 103.084 154.166C103.196 154.171 103.302 154.176 103.393 154.176C105.528 154.221 105.421 153.106 105.421 153.106C105.442 152.609 105.477 151.96 105.523 151.24C105.7 148.569 106.02 144.822 106.369 143.347C106.78 141.592 106.963 140.943 107.323 139.281C108.119 135.58 108.083 134.875 108.93 130.312L103.393 125.861C103.393 125.861 102.821 127.564 100.499 127.589C97.3958 127.63 96.4274 125.455 96.4274 125.455L88.8784 130.474L88.1686 142.667H88.1737Z" fill="#92A7F4"/>
<path d="M97.3022 119.691C97.4695 120.416 97.6875 121.125 97.9562 121.82C98.4479 123.092 99.1679 123.549 100.516 123.579C101.465 123.599 102.408 123.625 103.356 123.645C104.081 123.66 104.988 123.686 105.571 123.179C106.154 122.672 106.164 121.82 106.296 121.125C106.463 120.228 106.595 119.331 106.697 118.423C106.899 116.654 106.981 114.864 106.945 113.085C106.945 112.841 106.935 112.593 106.879 112.354C106.859 112.258 106.828 112.157 106.757 112.086C106.671 112 106.539 111.974 106.418 111.954C104.643 111.675 102.844 111.558 101.054 111.609C99.7864 111.645 98.4429 111.792 97.4391 112.567C96.4302 113.348 95.9485 114.616 95.5176 115.817C95.4466 116.01 95.3959 116.268 95.5632 116.385" fill="#FFBE9D"/>
<path d="M117.582 184.314C117.582 184.314 117.283 186.094 117.05 186.707C116.811 187.316 114.814 186.753 114.682 186.363C114.55 185.967 115.311 183.072 115.311 183.072" fill="#FFBE9D"/>
<path d="M113.988 186.86C113.816 187.519 113.598 188.777 113.598 188.777L115.596 189.649L115.925 189.339C115.925 189.339 116.422 189.938 117.035 190.221C117.492 190.429 118.47 190.703 118.967 190.759C120.711 190.946 121.994 190.617 122.095 190.379C122.526 189.37 120.214 189.096 119.753 188.979C118.435 188.635 117.7 187.514 117.563 186.784C117.461 186.257 117.593 186.161 117.294 186.176C117.294 186.176 117.035 186.161 116.792 186.409C116.422 186.789 115.869 186.962 115.373 186.738C115.089 186.612 114.82 186.424 114.663 186.15C114.663 186.15 114.156 186.206 113.983 186.86H113.988Z" fill="#1F3A71"/>
<path d="M103.086 154.164L108.759 161.023C108.987 161.069 109.21 161.109 109.438 161.145C110.894 161.388 112.496 161.515 114.093 161.535C115.776 161.561 117.454 161.464 118.96 161.261C118.519 162.529 117.434 164.151 117.023 165.931C115.664 171.812 115.193 179.716 114.843 184.603C114.843 184.603 115.502 185.855 117.596 184.902C120.719 177.181 126.184 161.52 126.128 158.128C126.118 157.327 125.687 156.592 124.912 155.928C124.871 155.887 124.831 155.857 124.79 155.821C123.928 155.117 122.681 154.488 121.125 153.935C121.079 153.925 121.038 153.905 120.993 153.89C117.287 152.592 111.902 151.72 105.94 151.269C105.895 151.264 105.849 151.264 105.803 151.259C105.717 151.253 105.626 151.243 105.53 151.238C105.484 151.968 105.449 152.607 105.428 153.104C105.428 153.104 105.535 154.219 103.4 154.174C103.309 154.174 103.208 154.169 103.091 154.164H103.086Z" fill="#285FAF"/>
<g style="mix-blend-mode:multiply" opacity="0.35">
<path d="M103.083 154.163L108.756 161.023C108.984 161.068 109.207 161.109 109.435 161.144C111.002 161.413 112.538 161.535 114.089 161.535C114.256 161.21 114.414 160.876 114.485 160.526C114.581 160.054 114.53 159.563 114.611 159.091C114.769 158.168 115.438 157.383 116.239 156.901C117.04 156.414 117.973 156.186 118.895 156.039C120.979 155.704 124.528 155.907 124.903 155.933H124.934C124.883 155.897 124.832 155.857 124.782 155.826C123.742 155.081 122.49 154.462 121.116 153.94C121.07 153.93 121.03 153.91 120.984 153.895C116.056 152.074 109.633 151.517 105.932 151.273C105.886 151.268 105.84 151.268 105.795 151.263C105.704 151.258 105.612 151.253 105.521 151.248C105.475 151.973 105.44 152.612 105.42 153.109C105.42 153.109 105.526 154.224 103.392 154.178C103.301 154.178 103.199 154.173 103.083 154.168V154.163Z" fill="#5275A0"/>
</g>
<path d="M112.425 188.427C112.425 188.427 112.44 190.232 112.314 190.876C112.187 191.515 110.118 191.312 109.921 190.947C109.723 190.582 109.971 187.596 109.971 187.596" fill="#FFBE9D"/>
<path d="M109.321 191.561C109.265 192.24 109.27 193.518 109.27 193.518L111.389 194.03L111.658 193.67C111.658 193.67 112.251 194.177 112.9 194.349C113.387 194.476 114.396 194.577 114.898 194.542C116.647 194.425 117.854 193.878 117.914 193.624C118.168 192.555 115.841 192.691 115.369 192.651C114.011 192.539 113.093 191.561 112.829 190.866C112.637 190.364 112.748 190.248 112.459 190.314C112.459 190.314 112.201 190.344 112.008 190.633C111.709 191.074 111.192 191.338 110.67 191.206C110.37 191.13 110.071 190.988 109.868 190.75C109.868 190.75 109.377 190.892 109.321 191.571V191.561Z" fill="#1F3A71"/>
<path d="M89.542 152.01C88.7105 153.946 88.163 157.45 88.9995 158.95C89.7347 160.263 90.0794 161.08 91.3266 161.495C96.6652 163.265 101.72 162.535 107.591 161.754C105.106 168.472 108.711 182.87 109.269 188.969C111.525 189.973 112.803 188.903 112.803 188.903C112.544 176.482 115.312 159.133 113.639 156.167C112.62 154.362 100.462 151.979 100.224 152.015" fill="#285FAF"/>
<path d="M98.8592 117.516C98.7578 117.09 98.0936 117.054 97.7894 117.379C97.4903 117.698 97.4548 118.18 97.4396 118.616C97.4193 119.158 97.688 119.711 97.977 120.177C98.266 120.639 98.6918 120.907 99.0822 120.527C99.1126 121.323 98.4739 121.967 97.9212 122.002C97.3636 122.038 96.8109 121.653 96.6487 121.12C94.2456 122.002 93.4851 118.524 93.3381 116.786C93.2215 115.422 93.6778 113.764 94.423 112.618C94.8286 111.995 95.437 111.472 96.162 111.305C96.238 110.423 96.8819 109.667 97.6525 109.226C98.4231 108.785 99.1126 108.588 99.9846 108.41C100.522 108.304 101.982 108.694 102.256 109.242C103.275 108.653 104.188 109.221 104.999 109.318C105.81 109.414 106.712 110.164 106.368 110.904C107.64 110.519 109.019 111.969 108.639 113.242C108.259 114.514 106.413 115.011 105.399 114.154C105.029 114.986 104.076 115.457 103.163 115.462C102.251 115.462 101.379 115.077 100.613 114.585C100.872 115.057 100.953 115.701 100.705 116.248C100.456 116.796 100.253 117.201 99.4422 117.034C99.4422 117.034 99.5132 118.296 99.2292 118.18C98.9453 118.063 98.8744 117.526 98.8744 117.526L98.8592 117.516Z" fill="#153351"/>
<path d="M115.11 148.863C111.87 144.199 110.141 140.518 107.322 135.59L103.393 125.861C103.393 125.861 104.716 125.932 104.975 125.953C106.08 126.039 107.206 126.186 108.25 126.571C109.751 127.129 111.302 128.148 112.032 129.618C112.686 130.926 113.082 132.351 113.634 133.699C114.253 135.21 114.907 136.701 115.566 138.196C116.874 141.157 118.212 144.108 119.312 147.155" fill="#92A7F4"/>
<path d="M107.869 136.547L108.396 133.389L112.27 141.881L110.987 142.195L107.869 136.547Z" fill="#7C98E5"/>
<path d="M89.2402 130.312C88.9106 136.351 89.083 142.409 89.7877 148.417C89.9854 150.1 90.2846 151.773 90.4367 153.456C90.4569 153.674 90.1071 153.72 90.0564 153.507C89.6914 152.042 89.5139 150.526 89.3314 149.03C89.1489 147.535 88.9968 146.024 88.8853 144.518C88.6571 141.507 88.5659 138.48 88.6064 135.458C88.6318 133.74 88.723 132.021 88.8498 130.307C88.8701 130.054 89.2604 130.049 89.2452 130.307L89.2402 130.312Z" fill="black"/>
<path d="M124.057 153.949H94.1094V152.874H124.057V153.949Z" fill="#AABDE2"/>
<path d="M129.395 153.949H105.42L109.719 139.936C109.958 139.16 110.672 138.633 111.478 138.633H132.473C133.279 138.633 133.852 139.409 133.613 140.179L129.39 153.949H129.395Z" fill="#AABDE2"/>
<path d="M129.695 153.949H106.084L110.384 139.936C110.622 139.16 111.337 138.633 112.143 138.633H133.137C133.938 138.633 134.516 139.409 134.278 140.179L130.161 153.604C130.1 153.807 129.908 153.949 129.695 153.949Z" fill="#E1E8F9"/>
<path d="M118.691 146.446C118.691 147.779 119.771 148.864 121.109 148.864C122.447 148.864 123.527 147.784 123.527 146.446C123.527 145.107 122.447 144.027 121.109 144.027C119.771 144.027 118.691 145.107 118.691 146.446Z" fill="#AABDE2"/>
<path d="M92.4815 132.851C93.7135 138.433 94.1038 144.872 94.4537 148.862C99.0824 149.202 100.385 150.981 104.624 152.867C104.624 152.867 107.975 152.309 108.325 153.572C108.528 154.302 104.401 154.88 104.401 154.88C100.472 154.9 90.9403 153.055 90.2406 152.862C89.541 152.669 86.6562 138.458 86.5751 131.305C86.565 130.291 86.6005 129.186 87.2342 128.395C87.5688 127.979 88.0352 127.69 88.5118 127.447C91.2799 126.032 93.3282 125.647 96.4258 125.449" fill="#7C98E5"/>
<path d="M104.038 153.735C104.504 153.147 105.351 153.06 106.102 153.081C106.654 153.096 107.212 153.137 107.759 153.213C108.008 153.248 108.297 153.304 108.322 153.578C108.347 153.851 107.105 153.578 106.456 153.765C107.734 153.877 109.012 153.907 110.294 153.872C110.441 153.872 110.598 153.862 110.735 153.917C110.872 153.973 110.994 154.105 110.984 154.252C110.979 154.368 110.893 154.465 110.806 154.546C110.451 154.865 109.96 154.997 109.488 155.078C107.531 155.423 105.478 155.362 103.658 154.561" fill="#FFBE9D"/>
<path d="M92.4799 132.851C92.5813 138.818 93.433 144.238 93.3164 150.205C97.9452 150.545 100.303 151.447 104.541 153.333C104.541 153.333 104.795 154.175 104.399 154.884C104.075 155.001 90.5483 154.433 89.4329 153.409C88.4341 152.486 86.6496 138.468 86.5684 131.315C86.5583 130.301 86.5938 129.195 87.2275 128.405C87.5621 127.989 88.0286 127.7 88.5051 127.457C91.2733 126.042 93.3215 125.657 96.4192 125.459" fill="#92A7F4"/>
<defs>
<linearGradient id="paint0_linear_4407_4021" x1="160.637" y1="101.197" x2="125.852" y2="101.197" gradientUnits="userSpaceOnUse">
<stop stop-color="white"/>
<stop offset="1" stop-color="white" stop-opacity="0"/>
</linearGradient>
<linearGradient id="paint1_linear_4407_4021" x1="145.954" y1="96.0308" x2="145.954" y2="109.841" gradientUnits="userSpaceOnUse">
<stop stop-color="white"/>
<stop offset="1" stop-color="white" stop-opacity="0"/>
</linearGradient>
</defs>
</svg>
